<?xml version="1.0" standalone="no"?>
<!DOCTYPE svg PUBLIC "-//W3C//DTD SVG 20010904//EN"
 "http://www.w3.org/TR/2001/REC-SVG-20010904/DTD/svg10.dtd">
<svg version="1.0" xmlns="http://www.w3.org/2000/svg"
 width="1024.000000pt" height="1024.000000pt" viewBox="0 0 1024.000000 1024.000000"
 preserveAspectRatio="xMidYMid meet">

<g transform="translate(0.000000,1024.000000) scale(0.100000,-0.100000)"
fill="#000000" stroke="none">
<path d="M4925 9264 c-343 -25 -558 -57 -823 -124 -352 -89 -782 -263 -1108
-450 -669 -383 -1189 -921 -1574 -1629 -228 -419 -371 -878 -436 -1401 -21
-166 -29 -583 -15 -781 44 -642 222 -1232 536 -1779 138 -240 172 -280 236
-280 36 0 75 33 89 75 10 29 8 41 -9 81 -12 25 -36 67 -54 92 -104 144 -266
477 -353 725 -250 716 -299 1451 -148 2211 14 71 29 139 34 150 4 12 16 49 25
83 10 34 22 60 26 57 5 -3 6 2 3 10 -4 11 0 16 11 16 12 0 15 -5 10 -20 -6
-17 -2 -20 29 -20 29 0 36 4 36 20 0 14 7 20 24 20 l24 0 -1 193 -2 193 65
130 65 129 5 -255 c5 -220 10 -276 15 -150 3 87 -4 80 85 80 73 0 80 2 80 20
0 13 7 20 20 20 13 0 20 7 20 20 0 16 7 20 35 20 31 0 35 3 35 28 0 29 12 54
25 52 5 0 15 23 22 51 15 60 53 114 94 138 l29 16 0 323 0 323 56 70 c31 38
60 69 65 69 5 0 9 -167 9 -384 l0 -384 42 -21 c41 -20 42 -20 58 -1 18 21 50
27 50 10 0 -5 9 -10 20 -10 13 0 20 7 20 20 0 17 7 20 40 20 33 0 40 3 40 20
0 17 7 20 38 20 26 0 45 -7 57 -20 10 -11 29 -20 42 -20 20 0 23 5 23 40 l0
40 44 0 c51 0 60 12 38 55 -9 17 -16 58 -16 92 l-1 62 -233 241 c-127 132
-232 246 -232 253 0 7 17 30 39 51 l38 37 237 -233 c131 -128 241 -233 244
-232 4 0 21 6 37 14 17 8 59 14 95 15 53 0 73 -5 113 -28 26 -15 54 -39 63
-52 13 -21 20 -23 38 -14 20 9 20 9 3 -5 -15 -11 -16 -18 -8 -35 6 -11 12 -32
13 -46 l2 -27 19 23 c11 13 17 33 14 46 -3 16 0 23 12 23 9 0 23 9 31 20 17
24 39 25 66 5 48 -36 57 4 11 52 -17 18 -35 29 -40 26 -6 -3 -7 -1 -4 4 8 13
-27 46 -37 36 -4 -5 -6 -3 -4 3 3 13 -86 109 -394 420 -120 121 -218 227 -218
235 0 8 21 29 46 48 l46 35 330 -337 c184 -188 334 -334 340 -330 6 3 8 2 5
-4 -3 -5 32 -47 79 -94 46 -46 84 -78 84 -72 0 7 -6 16 -13 20 -8 5 -11 17 -7
32 5 22 7 21 19 -18 7 -24 10 -45 7 -48 -2 -3 9 -23 25 -46 16 -22 29 -43 29
-47 0 -3 -21 -33 -46 -66 -26 -32 -62 -83 -81 -113 -49 -77 -165 -319 -208
-435 -137 -372 -169 -764 -89 -1096 27 -108 98 -305 115 -315 26 -17 0 -25
-83 -26 -51 0 -119 -4 -150 -8 l-57 -7 -19 46 c-36 83 -36 89 -8 111 28 22 41
61 51 159 3 36 13 95 21 132 12 60 12 76 -2 135 -9 38 -22 108 -29 157 -18
114 -24 119 -127 90 -32 -9 -60 -15 -62 -13 -2 2 -36 99 -76 214 -40 116 -77
216 -83 223 -5 6 -20 12 -33 12 -73 0 -681 -195 -718 -230 -19 -18 -18 -21 24
-141 23 -68 62 -171 85 -229 49 -120 54 -102 -49 -175 -31 -22 -56 -44 -56
-49 0 -5 20 -52 45 -104 42 -88 55 -105 153 -199 130 -124 201 -175 255 -182
38 -6 40 -8 54 -56 27 -94 26 -98 -9 -165 -30 -57 -33 -72 -33 -144 0 -63 6
-93 24 -134 44 -97 172 -187 284 -199 l56 -6 84 -121 c153 -219 312 -387 480
-506 26 -18 47 -38 46 -44 -3 -42 -29 -78 -85 -115 -77 -51 -211 -191 -268
-278 -63 -98 -120 -215 -151 -313 -24 -73 -29 -107 -33 -238 -5 -170 6 -261
44 -381 29 -86 83 -198 120 -246 31 -41 27 -50 -23 -60 -59 -10 -173 -69 -231
-119 -49 -42 -80 -56 -160 -72 -18 -4 -32 -9 -32 -13 0 -3 -11 -7 -23 -7 -13
-1 -72 -16 -130 -34 -78 -24 -107 -38 -107 -49 0 -14 2 -14 10 -1 9 13 10 13
10 0 1 -12 2 -12 10 1 10 17 55 34 79 30 8 -1 17 3 21 9 4 6 22 12 41 12 19 0
40 5 47 11 8 6 17 6 26 -2 10 -9 15 -8 20 4 3 8 13 15 22 15 11 0 14 -5 10
-17 -4 -9 -1 -20 6 -25 10 -6 10 -8 -2 -8 -17 0 -20 -21 -23 -155 -1 -73 2
-99 20 -137 20 -45 21 -46 2 -51 -12 -3 -19 -14 -19 -31 0 -51 130 -109 310
-140 123 -21 437 -43 715 -51 249 -7 595 -25 1050 -54 171 -11 367 -21 438
-22 70 -1 127 -5 127 -10 0 -5 -5 -18 -12 -29 -26 -41 62 -95 200 -124 225
-47 561 -42 1011 14 759 96 990 131 1245 191 72 17 149 35 171 39 54 11 268
83 328 110 93 41 153 116 159 195 2 39 -11 55 -102 125 l-32 25 25 56 c82 186
79 406 -8 597 -36 79 -110 186 -179 259 -124 133 -341 272 -526 337 l-75 27 0
342 c0 427 -26 685 -109 1098 l-36 175 56 85 c70 105 170 309 223 455 97 269
147 573 137 834 -3 85 -13 197 -21 249 -9 52 -14 94 -13 95 2 1 35 17 73 36
39 19 77 33 85 31 8 -1 12 0 8 4 -9 9 28 49 39 42 5 -3 15 -1 23 5 12 8 11 9
-4 4 -16 -5 -17 -4 -6 8 6 9 15 15 18 14 23 -2 32 5 32 25 0 16 3 18 9 8 7
-11 9 -11 14 0 3 8 6 9 6 3 1 -6 14 -9 31 -6 25 4 30 1 30 -16 0 -11 8 -22 20
-25 15 -4 20 -14 20 -37 0 -23 5 -33 20 -37 16 -4 20 -14 20 -48 0 -50 8 -77
21 -69 5 3 9 -5 9 -18 0 -14 -3 -18 -8 -11 -5 8 -11 3 -19 -13 -6 -13 -8 -24
-4 -24 14 0 82 80 76 90 -4 6 1 7 10 4 11 -5 15 -2 13 7 -1 8 1 15 6 15 17 3
95 88 89 97 -3 6 -1 7 4 4 9 -6 186 174 326 328 41 46 45 44 77 -32 l22 -53
-35 -42 c-19 -24 -82 -93 -140 -154 -59 -61 -104 -114 -102 -118 3 -3 2 -4 -2
-1 -7 6 -83 -64 -83 -77 0 -16 28 5 39 30 16 34 32 11 21 -30 -5 -17 -5 -26 1
-23 5 4 9 -1 9 -9 0 -9 7 -16 15 -16 8 0 15 -9 15 -20 0 -13 7 -20 19 -20 11
0 21 -9 25 -22 8 -33 8 -36 -11 -41 -10 -3 -4 -5 14 -6 26 -1 31 2 26 16 -4
11 -3 14 5 9 7 -4 12 -14 12 -22 0 -8 5 -14 11 -14 6 0 9 6 6 14 -6 14 15 40
24 32 2 -3 56 51 119 119 63 68 119 122 124 121 37 -8 162 -546 191 -821 8
-82 20 -188 25 -235 5 -47 7 -130 5 -185 -3 -55 -7 -176 -10 -270 -13 -447
-112 -925 -270 -1310 -69 -169 -202 -430 -288 -569 -102 -163 -107 -188 -53
-242 26 -26 42 -34 70 -34 49 0 84 39 185 207 319 533 502 1099 567 1753 20
198 22 593 4 795 -78 899 -469 1743 -1110 2399 -325 332 -591 539 -960 748
-500 283 -1091 471 -1655 527 -115 12 -504 22 -590 15z m285 -211 c0 -5 -192
-203 -428 -441 l-427 -434 -40 17 c-22 10 -51 22 -64 27 -23 8 -9 25 270 304
162 163 349 349 415 415 l121 119 77 0 c42 0 76 -3 76 -7z m214 -9 c14 -5 16
-51 16 -415 l0 -409 -67 0 -68 0 3 415 2 415 49 0 c27 0 56 -3 65 -6z m-1366
-723 l-3 -74 -63 -17 -62 -17 2 330 3 331 55 16 55 16 8 -256 c4 -140 6 -288
5 -329z m1760 499 c25 0 71 -33 93 -66 29 -45 26 -124 -7 -164 -55 -65 -129
-76 -194 -30 -44 31 -63 74 -57 128 6 55 32 91 83 117 47 24 53 32 56 70 1 21
3 18 5 -12 3 -32 8 -43 21 -43z m876 -101 l106 -51 0 -321 c0 -177 3 -331 6
-343 5 -18 19 -7 107 85 56 58 154 160 218 225 l117 119 51 -37 c28 -21 51
-39 51 -41 0 -2 -82 -89 -183 -192 -101 -103 -221 -227 -268 -276 l-85 -87
-69 47 -70 48 -5 398 -5 398 -195 -203 c-108 -112 -231 -240 -273 -285 l-78
-81 -66 19 c-36 10 -68 20 -70 22 -2 3 90 101 204 218 114 118 246 253 292
302 47 48 90 87 97 87 6 0 59 -23 118 -51z m-2490 -665 c56 -19 151 -103 126
-112 -26 -9 -153 -85 -199 -119 -24 -18 -47 -33 -50 -33 -3 0 -7 20 -8 45 -4
91 -68 165 -143 165 l-35 0 25 20 c60 48 196 64 284 34z m1406 -14 c271 -21
578 -101 814 -213 99 -48 251 -137 266 -156 3 -4 21 -18 40 -31 63 -43 155
-123 152 -132 -1 -5 1 -7 6 -4 12 7 85 -71 77 -83 -3 -6 0 -9 7 -6 19 8 64
-40 47 -50 -7 -5 -10 -4 -5 3 3 6 1 14 -5 17 -7 5 -10 -1 -9 -16 3 -38 1 -51
-9 -45 -5 3 -12 -1 -15 -10 -3 -8 -11 -12 -17 -8 -8 4 -9 3 -5 -5 6 -9 17 -5
39 14 150 123 236 173 347 205 171 48 354 12 459 -90 33 -33 101 -143 101
-166 0 -3 -21 13 -46 35 -26 23 -53 41 -60 41 -8 0 -14 4 -14 9 0 15 -137 34
-188 26 -124 -18 -251 -86 -357 -191 -30 -30 -55 -50 -55 -44 0 18 -17 11 -23
-10 -3 -13 -10 -18 -21 -14 -12 5 -16 20 -16 60 l0 54 -20 -20 c-13 -13 -20
-33 -20 -60 0 -33 -3 -40 -19 -40 -11 0 -21 5 -23 11 -2 7 -17 8 -41 4 -27 -5
-37 -12 -37 -26 0 -12 -7 -19 -20 -19 -13 0 -20 -7 -20 -20 0 -13 7 -20 20
-20 13 0 20 -7 20 -20 0 -13 -7 -20 -20 -20 -13 0 -20 -7 -20 -20 0 -17 -7
-20 -40 -20 -33 0 -40 -3 -40 -20 0 -13 -7 -20 -20 -20 -18 0 -20 -7 -20 -80
0 -73 -2 -80 -20 -80 -18 0 -20 -7 -20 -60 0 -53 -2 -60 -20 -60 -13 0 -20 -7
-20 -20 0 -13 -7 -20 -20 -20 -18 0 -20 -7 -20 -80 l0 -80 -40 0 c-33 0 -40
-3 -40 -20 0 -17 -7 -20 -40 -20 -33 0 -40 -3 -40 -20 0 -18 -7 -20 -59 -20
-51 0 -61 3 -66 20 -3 11 -13 20 -21 20 -8 0 -14 -9 -14 -20 0 -11 -3 -20 -8
-20 -4 0 -6 37 -5 83 l1 82 -9 -99 c-5 -55 -14 -103 -20 -107 -6 -4 -8 -20 -3
-44 5 -26 3 -36 -4 -31 -6 4 -9 14 -6 24 5 14 4 14 -4 2 -6 -8 -8 -18 -6 -22
3 -4 1 -8 -4 -8 -10 0 -68 -101 -64 -113 1 -5 -2 -6 -7 -2 -12 7 -33 -29 -23
-40 4 -3 2 -5 -3 -3 -6 1 -23 -7 -38 -18 l-27 -22 24 -6 c14 -3 32 -3 42 1 11
4 15 2 11 -4 -8 -12 71 -45 87 -36 6 3 8 3 4 -2 -4 -4 19 -24 50 -44 141 -92
270 -284 293 -439 20 -135 -26 -284 -113 -372 -46 -46 -159 -107 -251 -136
-34 -11 -56 -23 -53 -29 3 -9 -56 -13 -227 -14 -320 -2 -467 -22 -670 -92
-298 -102 -558 -308 -648 -515 -28 -66 -29 -163 -2 -225 38 -86 231 -254 408
-356 125 -72 224 -110 499 -189 104 -30 192 -56 194 -59 7 -6 8 -6 -61 -45
-126 -70 -282 -215 -368 -342 -249 -365 -252 -900 -7 -1275 l40 -63 -54 -58
c-29 -32 -67 -85 -83 -116 l-30 -58 -165 5 c-411 14 -722 115 -1005 327 -274
206 -460 510 -535 876 -67 326 -43 816 65 1314 20 91 40 190 45 220 10 58 67
265 94 340 9 24 14 50 11 58 -3 8 0 10 7 6 7 -5 9 0 6 14 -4 12 -2 20 2 17 8
-5 26 51 22 68 -1 4 3 7 9 7 6 0 8 9 4 21 -5 13 -3 19 3 15 5 -3 12 1 15 9 4
10 1 12 -11 9 -9 -2 -7 1 6 7 25 14 29 29 6 29 -8 0 -12 4 -9 10 3 6 1 10 -5
10 -6 0 -9 4 -5 9 3 5 1 12 -5 16 -6 4 -9 -12 -7 -44 2 -28 1 -55 -3 -61 -8
-13 -80 -3 -80 11 0 5 -7 9 -15 9 -8 0 -15 -6 -15 -14 0 -33 -110 -46 -219
-26 -31 5 -77 12 -103 16 -32 3 -48 10 -48 19 0 8 -10 17 -22 19 -30 6 -139
18 -158 18 -15 0 -38 29 -92 121 -25 43 -26 48 -10 55 25 10 348 6 412 -6 153
-28 279 -56 275 -62 -2 -4 2 -7 10 -7 30 0 13 27 -82 130 -111 119 -151 179
-203 310 -62 155 -100 346 -100 508 0 92 15 150 54 209 20 29 24 49 25 125 1
50 4 115 7 145 4 41 2 51 -6 40 -8 -11 -9 -8 -4 15 4 17 11 32 16 33 4 2 6 7
3 12 -7 11 69 230 114 325 79 168 214 369 351 520 248 275 598 494 937 589
274 76 507 98 803 76z m-2280 -640 c0 -5 -7 -7 -15 -4 -8 4 -15 8 -15 10 0 2
7 4 15 4 8 0 15 -4 15 -10z m-153 -82 c-3 -8 -6 -5 -6 6 -1 11 2 17 5 13 3 -3
4 -12 1 -19z m-907 -292 c0 -3 -4 -8 -10 -11 -5 -3 -10 -1 -10 4 0 6 5 11 10
11 6 0 10 -2 10 -4z m-594 -343 c-11 -11 -19 6 -11 24 8 17 8 17 12 0 3 -10 2
-21 -1 -24z m6750 -320 c-11 -11 -19 6 -11 24 8 17 8 17 12 0 3 -10 2 -21 -1
-24z m-5828 -95 c38 -91 92 -246 92 -261 0 -7 -46 -25 -103 -41 -56 -16 -154
-46 -217 -66 -186 -61 -158 -74 -224 103 -76 202 -73 185 -40 198 57 22 429
138 446 138 11 1 25 -22 46 -71z m4888 -298 c-4 -181 -8 -223 -35 -355 -65
-310 -168 -557 -334 -805 l-50 -75 27 -130 c90 -430 113 -606 128 -981 10
-256 9 -316 -6 -497 -26 -317 -67 -520 -148 -741 -43 -118 -100 -240 -126
-268 -13 -16 -72 -26 -72 -13 0 3 11 27 24 53 118 234 220 585 268 922 20 146
17 809 -5 1007 -24 214 -94 573 -133 686 -13 38 -13 38 49 130 61 92 163 286
192 369 134 378 166 527 185 849 5 96 10 183 11 194 1 11 8 -16 16 -60 10 -59
13 -135 9 -285z m-4601 -144 c10 -123 0 -171 -46 -221 -21 -23 -55 -47 -76
-54 -100 -32 -261 -80 -290 -86 -71 -15 -160 42 -207 133 -22 42 -41 46 -87
15 -43 -28 -43 -28 -53 2 -4 15 2 25 25 40 16 11 35 19 40 17 6 -1 8 2 4 7 -3
6 7 17 22 24 49 26 609 203 649 206 7 1 14 -30 19 -83z m-177 -424 c2 -15 -2
-22 -12 -22 -9 0 -16 4 -16 9 0 5 -3 16 -6 24 -4 11 0 15 13 13 10 -2 19 -13
21 -24z m75 -85 c31 5 35 2 39 -21 6 -30 2 -36 -24 -36 -22 0 -22 -10 -3 -57
13 -32 18 -35 44 -30 21 4 31 2 35 -9 11 -28 7 -33 -31 -40 -21 -4 -61 -15
-90 -25 l-52 -18 -19 52 c-11 29 -25 70 -31 92 -7 22 -18 51 -24 64 -9 19 -9
25 1 28 6 3 12 13 12 23 0 15 9 19 43 22 37 3 43 0 54 -24 11 -23 17 -26 46
-21z m-153 28 c0 -8 -4 -15 -9 -15 -5 0 -11 7 -15 15 -3 9 0 15 9 15 8 0 15
-7 15 -15z m79 -528 c55 -54 101 -130 88 -143 -10 -10 -164 46 -189 70 -14 12
-29 21 -35 19 -23 -8 -31 89 -11 132 l11 25 39 -23 c21 -12 65 -49 97 -80z
m199 61 c117 -231 248 -409 434 -590 62 -61 97 -102 92 -109 -4 -7 -10 -25
-13 -41 l-6 -28 -70 65 c-38 35 -70 68 -70 73 0 5 -44 55 -97 111 -118 123
-180 213 -267 388 -62 122 -65 133 -51 152 8 11 17 20 21 21 3 0 15 -19 27
-42z m3492 -10 c49 -21 62 -40 66 -100 4 -62 -14 -99 -46 -91 -15 4 -20 1 -20
-16 0 -18 -6 -21 -40 -21 l-40 0 0 -40 0 -40 -40 0 c-33 0 -40 -3 -40 -20 0
-13 -7 -20 -20 -20 -17 0 -20 -7 -20 -40 0 -33 -3 -40 -20 -40 -13 0 -20 7
-20 20 0 13 -7 20 -20 20 -13 0 -20 -7 -20 -20 0 -13 -7 -20 -20 -20 -13 0
-20 -7 -20 -20 0 -13 -7 -20 -20 -20 -13 0 -20 -7 -20 -20 0 -13 -7 -20 -20
-20 -13 0 -20 -7 -20 -20 0 -17 -7 -20 -40 -20 -33 0 -40 -3 -40 -20 0 -17 -7
-20 -40 -20 -33 0 -40 -3 -40 -20 0 -18 -7 -20 -80 -20 -73 0 -80 -2 -80 -20
0 -17 -7 -20 -40 -20 -33 0 -40 3 -40 20 0 13 -7 20 -20 20 -13 0 -20 -7 -20
-20 0 -17 -7 -20 -49 -20 -70 0 -111 10 -111 27 0 12 -8 14 -37 8 -21 -5 -45
-7 -53 -6 -8 1 -50 4 -92 7 -79 6 -98 -3 -55 -25 22 -11 22 -11 -3 -5 -14 3
-35 12 -47 20 -31 19 -40 18 -47 -10 -3 -14 -18 -29 -36 -36 -36 -15 -154 -15
-209 0 -39 10 -41 12 -41 51 0 33 6 47 31 69 16 16 39 32 50 35 11 4 19 15 19
29 0 31 67 112 145 175 154 125 427 230 680 261 50 6 147 24 216 41 69 16 153
34 185 39 82 12 251 6 294 -12z m-862 -715 c-16 -2 -40 -2 -55 0 -16 2 -3 4
27 4 30 0 43 -2 28 -4z m-2229 -714 c-7 -53 -17 -90 -28 -99 -44 -41 -91 -102
-86 -110 4 -6 2 -10 -4 -10 -18 0 -62 -88 -93 -183 -23 -70 -29 -105 -26 -146
5 -52 5 -53 -13 -30 -42 56 -53 167 -24 254 22 66 74 170 119 236 35 52 156
183 163 176 1 -2 -2 -42 -8 -88z m2818 -15 c-3 -3 -12 -4 -19 -1 -8 3 -5 6 6
6 11 1 17 -2 13 -5z m-47 -14 c0 -4 63 -4 140 -2 184 6 188 -10 15 -54 -58
-15 -65 -19 -45 -25 23 -6 22 -7 -7 -8 -22 -1 -33 -6 -33 -16 0 -10 -10 -15
-27 -16 -16 0 -22 -3 -16 -6 17 -6 -1 -24 -45 -47 -18 -9 -32 -21 -32 -26 0
-6 -5 -10 -12 -10 -17 0 -58 -41 -58 -57 0 -8 -8 -13 -17 -12 -42 4 -59 -4
-83 -35 -14 -19 -28 -32 -31 -30 -4 2 -9 -2 -12 -10 -3 -8 -21 -17 -39 -21
-18 -4 -40 -16 -49 -26 -17 -19 -65 -27 -54 -9 3 6 -1 10 -9 10 -9 0 -16 -8
-16 -18 0 -10 -11 -25 -25 -32 -13 -7 -24 -16 -23 -19 2 -24 -4 -32 -21 -26
-14 4 -20 -1 -25 -20 -4 -14 -11 -25 -17 -25 -6 0 -7 6 -3 13 4 7 3 9 -2 4 -9
-8 -10 -12 -13 -39 0 -6 -4 -8 -8 -4 -9 9 -51 -84 -69 -154 -8 -31 -15 -87
-16 -124 -3 -74 -13 -73 -41 4 -41 114 -27 229 46 383 74 154 159 250 305 345
79 51 214 104 269 106 22 0 40 3 38 6 -2 3 5 6 16 6 10 0 19 -3 19 -6z m-3021
-670 c5 0 19 -40 31 -89 36 -146 107 -288 210 -423 l22 -28 -49 6 c-40 5 -54
13 -86 47 -87 96 -163 266 -192 435 -21 118 -21 119 20 83 20 -17 40 -31 44
-31z m2351 -345 c12 -4 21 -19 25 -48 8 -51 68 -206 102 -265 14 -23 45 -68
69 -99 l45 -58 -56 -18 c-65 -22 -61 -25 -119 78 -75 133 -136 329 -136 437
l0 40 25 -31 c14 -16 34 -33 45 -36z m2337 -105 c57 -34 75 -100 48 -181 -21
-63 -124 -172 -200 -211 -150 -76 -368 -104 -599 -77 -93 10 -245 43 -281 60
-11 5 -31 10 -45 11 -14 2 -28 7 -31 11 -3 4 -19 10 -35 13 -47 8 -314 168
-301 180 3 3 31 -8 63 -24 173 -87 404 -142 624 -149 219 -7 333 14 483 89
117 58 197 162 197 256 0 37 3 42 23 42 12 0 36 -9 54 -20z m-4442 -257 c68
-17 164 -71 195 -110 28 -36 25 -67 -10 -107 -68 -77 -234 -119 -475 -120
-152 -1 -163 0 -209 24 -27 14 -56 37 -65 53 -15 26 -15 30 13 82 53 101 181
178 331 199 46 6 153 -4 220 -21z m2683 -263 c27 -5 80 -23 116 -40 54 -26 69
-38 81 -67 21 -49 19 -67 -10 -101 -70 -83 -226 -143 -442 -169 -122 -15 -144
-15 -225 -2 -75 13 -93 13 -104 2 -11 -11 -15 -10 -25 9 -62 117 92 305 292
357 82 22 233 27 317 11z"/>
<path d="M6880 7460 c0 -24 25 -27 34 -4 9 23 8 24 -14 24 -13 0 -20 -7 -20
-20z"/>
<path d="M6930 7330 c0 -5 4 -10 9 -10 6 0 13 5 16 10 3 6 -1 10 -9 10 -9 0
-16 -4 -16 -10z"/>
<path d="M7091 7254 c0 -11 3 -14 6 -6 3 7 2 16 -1 19 -3 4 -6 -2 -5 -13z"/>
<path d="M4103 7026 c-106 -34 -205 -122 -256 -226 -30 -61 -32 -70 -32 -180
0 -110 2 -118 33 -182 40 -81 100 -143 172 -177 47 -22 69 -26 150 -26 88 0
101 3 162 33 99 48 171 131 203 234 67 211 -11 409 -197 504 -64 33 -169 42
-235 20z m185 -73 c34 -21 62 -73 62 -115 0 -61 -73 -128 -141 -128 -36 0 -90
32 -110 64 -35 57 -17 150 33 177 57 31 110 31 156 2z"/>
<path d="M5681 6895 c-81 -23 -145 -62 -205 -125 -91 -96 -132 -207 -123 -340
25 -397 496 -564 765 -271 128 139 149 363 49 533 -38 65 -128 145 -202 180
-81 37 -198 47 -284 23z m175 -74 c112 -51 113 -211 1 -261 -55 -25 -93 -25
-141 3 -104 59 -95 206 16 260 43 21 74 21 124 -2z"/>
<path d="M3702 6630 c0 -19 2 -27 5 -17 2 9 2 25 0 35 -3 9 -5 1 -5 -18z"/>
<path d="M3701 6564 c0 -11 3 -14 6 -6 3 7 2 16 -1 19 -3 4 -6 -2 -5 -13z"/>
<path d="M6331 6564 c0 -11 3 -14 6 -6 3 7 2 16 -1 19 -3 4 -6 -2 -5 -13z"/>
<path d="M3493 6555 c-3 -9 -3 -18 -1 -21 3 -3 8 4 11 16 6 23 -1 27 -10 5z"/>
<path d="M3510 6527 c0 -7 5 -18 12 -25 7 -7 9 -12 4 -12 -4 0 -15 7 -23 16
-13 13 -17 13 -24 2 -5 -7 -6 -21 -3 -30 3 -11 0 -18 -7 -18 -7 0 -10 -3 -7
-6 4 -3 0 -21 -8 -40 -8 -19 -21 -64 -30 -102 -8 -37 -18 -76 -21 -86 -4 -15
5 -11 38 16 48 39 108 71 152 82 15 4 25 10 22 15 -2 5 2 12 11 15 8 3 13 2
10 -3 -5 -8 124 -3 133 5 2 2 -17 4 -42 4 -50 0 -51 2 -47 62 1 22 -4 29 -27
34 -33 9 -53 27 -53 48 0 12 -10 16 -35 16 -19 0 -35 5 -35 10 0 6 -4 10 -10
10 -5 0 -10 -6 -10 -13z"/>
<path d="M3720 6440 c0 -11 2 -20 4 -20 2 0 6 9 9 20 3 11 1 20 -4 20 -5 0 -9
-9 -9 -20z"/>
<path d="M3740 6415 c0 -8 4 -15 10 -15 5 0 7 7 4 15 -4 8 -8 15 -10 15 -2 0
-4 -7 -4 -15z"/>
<path d="M5055 6410 c27 -12 43 -12 25 0 -8 5 -22 9 -30 9 -10 0 -8 -3 5 -9z"/>
<path d="M5100 6386 c0 -2 7 -6 15 -10 8 -3 15 -1 15 4 0 6 -7 10 -15 10 -8 0
-15 -2 -15 -4z"/>
<path d="M5176 6352 c-3 -5 1 -9 9 -9 8 0 15 4 15 9 0 4 -4 8 -9 8 -6 0 -12
-4 -15 -8z"/>
<path d="M4570 6328 c-65 -33 -73 -64 -35 -136 41 -76 72 -97 143 -96 93 1
124 14 179 72 59 62 40 111 -60 158 -70 32 -165 33 -227 2z m184 -22 c79 -33
50 -51 -67 -41 -92 7 -113 15 -104 39 8 21 123 22 171 2z"/>
<path d="M4260 6072 c-18 -15 -22 -28 -22 -65 2 -59 21 -105 68 -157 37 -41
99 -80 128 -80 20 0 26 -22 26 -93 1 -91 25 -212 55 -273 47 -95 151 -164 250
-164 46 0 130 46 174 96 47 54 75 126 101 263 12 58 22 105 23 105 1 1 24 13
52 27 66 35 107 86 109 138 2 80 -73 112 -113 47 -29 -47 -75 -66 -158 -66
-91 0 -171 38 -242 115 l-49 55 -20 -34 c-39 -65 -156 -97 -215 -57 -38 25
-57 54 -71 110 -11 41 -16 46 -42 49 -19 2 -40 -4 -54 -16z m605 -529 c-22
-120 -101 -176 -170 -121 -26 20 -64 88 -65 115 0 19 88 42 169 42 l73 1 -7
-37z"/>
<path d="M3720 4991 c0 -6 6 -11 13 -11 8 0 7 -4 -3 -10 -9 -6 -10 -10 -3 -10
19 0 24 17 8 30 -10 9 -15 9 -15 1z"/>
<path d="M3545 4850 c-3 -5 1 -10 10 -10 9 0 13 5 10 10 -3 6 -8 10 -10 10 -2
0 -7 -4 -10 -10z"/>
<path d="M2490 6248 c-19 -5 -36 -11 -37 -12 -3 -3 38 -126 41 -126 11 0 96
33 96 38 0 3 -8 29 -17 59 -18 57 -22 59 -83 41z"/>
<path d="M2226 6164 c-22 -8 -41 -16 -43 -18 -2 -2 3 -29 12 -61 17 -56 17
-56 48 -49 66 14 79 22 71 47 -21 66 -32 91 -40 93 -5 1 -27 -4 -48 -12z"/>
<path d="M5066 4265 c4 -8 8 -15 10 -15 2 0 4 7 4 15 0 8 -4 15 -10 15 -5 0
-7 -7 -4 -15z"/>
<path d="M6060 3270 c0 -5 5 -10 10 -10 6 0 10 5 10 10 0 6 -4 10 -10 10 -5 0
-10 -4 -10 -10z"/>
<path d="M5740 3050 c0 -5 5 -10 11 -10 5 0 7 5 4 10 -3 6 -8 10 -11 10 -2 0
-4 -4 -4 -10z"/>
<path d="M5576 2954 c-15 -21 -15 -24 -1 -24 8 0 15 9 15 20 0 13 5 18 15 14
8 -4 15 -4 15 -1 0 3 -6 7 -14 10 -9 3 -21 -4 -30 -19z"/>
<path d="M3373 7352 c10 -10 15 -22 12 -25 -3 -4 -2 -5 2 -2 3 3 13 -1 22 -7
9 -7 3 2 -13 20 -17 18 -32 32 -34 32 -3 0 2 -8 11 -18z"/>
<path d="M3134 7168 c-4 -7 -14 -24 -22 -38 -14 -24 -13 -24 3 -5 20 24 37 55
31 55 -3 0 -8 -6 -12 -12z"/>
<path d="M2760 7106 c0 -2 8 -10 18 -17 15 -13 16 -12 3 4 -13 16 -21 21 -21
13z"/>
<path d="M3024 7054 c-18 -14 -18 -15 4 -4 12 6 22 13 22 15 0 8 -5 6 -26 -11z"/>
<path d="M2908 7023 c6 -2 18 -2 25 0 6 3 1 5 -13 5 -14 0 -19 -2 -12 -5z"/>
<path d="M2310 6976 c0 -8 4 -17 9 -20 5 -4 7 3 4 14 -6 23 -13 26 -13 6z"/>
<path d="M2336 6928 c3 -5 10 -6 15 -3 13 9 11 12 -6 12 -8 0 -12 -4 -9 -9z"/>
<path d="M2371 6834 c0 -11 3 -14 6 -6 3 7 2 16 -1 19 -3 4 -6 -2 -5 -13z"/>
<path d="M8300 6335 c-11 -13 -10 -14 4 -9 9 3 16 10 16 15 0 13 -6 11 -20 -6z"/>
<path d="M8265 6299 c-4 -6 -5 -12 -2 -15 2 -3 7 2 10 11 7 17 1 20 -8 4z"/>
<path d="M8030 6271 c0 -5 -6 -16 -12 -23 -34 -36 -38 -49 -5 -19 37 35 46 51
27 51 -5 0 -10 -4 -10 -9z"/>
<path d="M8782 6260 c-7 -11 -8 -20 -3 -20 9 0 24 30 18 36 -1 2 -8 -6 -15
-16z"/>
<path d="M8732 6207 c-12 -13 -22 -27 -22 -31 0 -4 11 5 25 20 14 15 25 29 25
30 0 8 -7 3 -28 -19z"/>
<path d="M8385 6190 c-8 -13 5 -13 25 0 13 8 13 10 -2 10 -9 0 -20 -4 -23 -10z"/>
<path d="M8679 6149 c-8 -16 -8 -24 2 -33 9 -8 10 -8 5 1 -4 7 -2 22 4 33 6
11 8 20 6 20 -3 0 -10 -9 -17 -21z"/>
<path d="M8698 6085 c5 -11 12 -27 15 -35 5 -13 6 -13 6 1 1 8 -6 24 -15 35
-15 19 -15 19 -6 -1z"/>
<path d="M2473 1930 c-13 -5 -23 -12 -23 -15 0 -10 44 2 48 13 4 14 4 14 -25
2z"/>
<path d="M2225 1880 c-3 -6 1 -7 9 -4 18 7 21 14 7 14 -6 0 -13 -4 -16 -10z"/>
</g>
</svg>
